<svg width="126.000000" height="120.000000" viewBox="0 0 126 120" fill="none" xmlns="http://www.w3.org/2000/svg" xmlns:xlink="http://www.w3.org/1999/xlink">
	<desc>
			Created with Pixso.
	</desc>
	<defs/>
	<path id="矢量 1" d="M72.69 34.59L65.48 55.68L83.68 55.68L56.84 84.59L63.4 63.81L45.82 63.81L72.69 34.59ZM65.75 119.56L45.81 119.56L45.81 89.59L65.75 89.59C67.7 89.6 69.64 89.42 71.56 89.04C73.49 88.67 75.35 88.12 77.17 87.38C78.98 86.65 80.71 85.74 82.34 84.67C83.98 83.59 85.5 82.37 86.89 81C88.29 79.63 89.54 78.13 90.65 76.52C91.75 74.9 92.69 73.19 93.46 71.39C94.23 69.59 94.82 67.73 95.22 65.82C95.63 63.9 95.85 61.97 95.88 60.01C95.9 58.05 95.74 56.11 95.39 54.19C95.04 52.26 94.5 50.39 93.78 48.57C93.06 46.75 92.17 45.01 91.11 43.37C90.05 41.72 88.85 40.19 87.49 38.78C86.13 37.37 84.65 36.1 83.04 34.98C81.44 33.86 79.74 32.91 77.95 32.12C76.15 31.34 74.3 30.73 72.39 30.3C70.48 29.88 68.55 29.64 66.59 29.6C64.63 29.55 62.69 29.69 60.76 30.03C58.83 30.36 56.95 30.88 55.13 31.58C53.3 32.28 51.56 33.16 49.9 34.2C48.24 35.24 46.7 36.43 45.28 37.78C43.86 39.12 42.58 40.59 41.44 42.19C40.31 43.78 39.34 45.47 38.53 47.26C37.73 49.04 37.1 50.89 36.66 52.79C36.21 54.7 35.96 56.63 35.9 58.59L35.87 79.59L5.96 79.59L5.96 58.59C6.04 54.68 6.51 50.82 7.35 47C8.18 43.18 9.38 39.48 10.94 35.9C12.5 32.31 14.4 28.92 16.62 25.7C18.85 22.49 21.37 19.53 24.18 16.81C26.99 14.09 30.04 11.67 33.32 9.55C36.6 7.43 40.06 5.65 43.69 4.21C47.33 2.77 51.07 1.69 54.91 0.99C58.75 0.28 62.63 -0.05 66.54 0C70.45 0.05 74.31 0.48 78.14 1.29C81.96 2.1 85.67 3.28 89.26 4.81C92.85 6.35 96.26 8.22 99.49 10.43C102.72 12.64 105.7 15.14 108.44 17.93C111.17 20.72 113.61 23.75 115.75 27.02C117.89 30.29 119.7 33.73 121.16 37.36C122.63 40.98 123.73 44.71 124.46 48.55C125.2 52.39 125.55 56.26 125.53 60.17C125.5 64.08 125.09 67.95 124.31 71.78C123.52 75.61 122.38 79.32 120.86 82.93C119.35 86.53 117.5 89.95 115.31 93.19C113.13 96.44 110.65 99.43 107.88 102.19C105.1 104.94 102.09 107.4 98.83 109.56C95.58 111.73 92.14 113.55 88.53 115.04C84.92 116.53 81.19 117.66 77.36 118.42C73.53 119.18 69.65 119.56 65.75 119.56ZM5.96 89.59L35.87 89.59L35.87 119.56L5.97 119.56L0 119.57L5.96 113.58L5.96 89.59Z" fill="#F5C51E" fill-opacity="1.000000" fill-rule="evenodd"/>
</svg>
